<svg width="24.000732" height="24.000000" viewBox="0 0 24.0007 24" fill="none" xmlns="http://www.w3.org/2000/svg"
>
    <desc>
        Created with Pixso.
    </desc>
    <defs/>
    <rect id="Outline bell" rx="0.000000" width="23.000000" height="23.000000" transform="translate(0.500732 0.500000)"
          fill="#FFFFFF" fill-opacity="0"/>
    <path id="Mask"
          d="M15.7202 15.404L17.5212 17.208C17.9902 17.677 18.1284 18.377 17.8733 18.991C17.6194 19.604 17.0273 20 16.3633 20L13.0002 20L13.0002 20.341C13.0002 22.359 11.2063 24 9.00024 24C6.79443 24 5.00024 22.359 5.00024 20.341L5.00024 20L1.63745 20C0.973389 20 0.380371 19.604 0.125244 18.99C-0.128662 18.377 0.0102539 17.678 0.479248 17.208L2.28027 15.404L2.28125 10.727C2.28125 8.793 3.11938 6.949 4.58325 5.667C6.03833 4.391 7.97827 3.804 9.90039 4.06C13.2183 4.499 15.7202 7.456 15.7202 10.937L15.7202 15.404ZM3.69531 16.818L2.51538 18L15.4863 18L14.3054 16.817C13.9285 16.44 13.7205 15.938 13.7205 15.404L13.7205 10.937C13.7205 8.455 11.9653 6.351 9.63843 6.042C8.26147 5.861 6.93945 6.261 5.90137 7.171C4.87134 8.073 4.28125 9.37 4.28125 10.727L4.28125 15.404C4.28125 15.938 4.07324 16.44 3.69531 16.818ZM11.0002 20.341C11.0002 21.24 10.0845 22 9.00024 22C7.91626 22 7.00024 21.24 7.00024 20.341L7.00024 20L11.0002 20L11.0002 20.341Z"
          clip-rule="evenodd" fill="#FFFFFF" fill-opacity="1.000000" fill-rule="evenodd"/>
</svg>
